# xmcd CD database file
#
# Track frame offsets:
#	150
#	17299
#	33555
#	47351
#	62950
#	80697
#	95376
#	107015
#	125959
#	142482
#	162372
#
# Disc length: 2456 seconds
#
# Revision: 0
# Processed by: cddbd v1.5.1PL0 Copyright (c) Steve Scherf et al.
# Submitted via: CDex 1.51
#
DISCID=9809960b
DTITLE=The Aaron Goodvin Band - A Live Studio Collection
DYEAR=2005
DGENRE=Country
TTITLE0=Good Morning Kiss
TTITLE1=Friday Night Feelin'
TTITLE2=Hot
TTITLE3=Is It Just Me
TTITLE4=The Booster Juice Song
TTITLE5=Gametime
TTITLE6=Almost Famous
TTITLE7=Fastlane
TTITLE8=Burn You Back
TTITLE9=Out Of Order
TTITLE10=A Fools Holiday
EXTD=YEAR: 2005
EXTT0=
EXTT1=
EXTT2=
EXTT3=
EXTT4=
EXTT5=
EXTT6=
EXTT7=
EXTT8=
EXTT9=
EXTT10=
PLAYORDER=
